<svg width="200" height="200" viewBox="0 0 200 200" fill="none" xmlns="http://www.w3.org/2000/svg">
<g clip-path="url(#clip0_23_362)">
<path d="M95.7025 71.5473H25.2521L12.1561 91.223V71.5473H0V0H95.7025V71.5473Z" fill="#E5E5E5"/>
<path d="M80.01 21.0172H15.6927V24.8927H80.01V21.0172Z" fill="white"/>
<path d="M80.01 33.8361H15.6927V37.7116H80.01V33.8361Z" fill="white"/>
<path d="M80.01 46.655H15.6927V50.5305H80.01V46.655Z" fill="white"/>
<path d="M12.3499 103.266C13.6857 103.266 14.7686 101.805 14.7686 100.003C14.7686 98.2016 13.6857 96.741 12.3499 96.741C11.0141 96.741 9.93118 98.2016 9.93118 100.003C9.93118 101.805 11.0141 103.266 12.3499 103.266Z" fill="#E6E6E6"/>
<path d="M168.933 195.836H166.222L164.933 181.737H168.933L168.933 195.836Z" fill="#9F616A"/>
<path d="M169.624 199.38L160.885 199.379V199.23C160.885 198.014 161.244 196.847 161.881 195.987C162.519 195.126 163.384 194.643 164.286 194.643L169.624 194.643L169.624 199.38Z" fill="#2F2E41"/>
<path d="M142.519 195.547L139.949 194.385L142.05 180.464L145.842 182.179L142.519 195.547Z" fill="#9F616A"/>
<path d="M142.339 199.203L134.054 195.456L134.089 195.315C134.376 194.161 134.991 193.208 135.798 192.666C136.606 192.124 137.54 192.037 138.395 192.423L143.456 194.712L142.339 199.203Z" fill="#2F2E41"/>
<path d="M145.86 122.971L139.991 189.932L145.747 190.587C145.747 190.587 154.801 124.751 157.592 132.55C160.384 140.349 163.804 189.125 163.804 189.125H169.516C169.516 189.125 170.981 113.021 165 109.256L145.86 122.971Z" fill="#2F2E41"/>
<path d="M161.071 67.8041C161.625 63.5624 159.525 59.5179 156.38 58.7707C153.235 58.0234 150.237 60.8562 149.683 65.098C149.129 69.3397 151.229 73.3842 154.374 74.1315C157.519 74.8787 160.517 72.0459 161.071 67.8041Z" fill="#9F616A"/>
<path d="M151.941 77.1196L159.318 77.9264C159.318 77.9264 165.199 78.0608 167.592 80.2122C169.984 82.3635 165.299 95.6751 165.299 95.6751C165.299 95.6751 164.081 100.953 165 103.339C167.982 111.083 167.54 117.046 167.54 117.046C167.54 117.046 161.411 118.937 150.844 122.702C150.844 122.702 144.265 126.198 144.464 124.315C144.663 122.433 146.657 100.919 146.657 100.919V78.5987L151.941 77.1196Z" fill="#3F3D56"/>
<path d="M164.846 65.6059C164.55 63.3851 163.889 60.2347 162.416 57.846C162.463 57.8464 162.509 57.8492 162.555 57.8473C163.062 57.8274 163.638 57.6121 163.847 56.99C163.914 56.7408 163.931 56.4718 163.896 56.2109C163.86 55.95 163.773 55.7066 163.645 55.506C163.384 55.1097 163.071 54.7806 162.723 54.5347C163.078 54.8256 163.581 55.0958 163.864 54.6861C163.937 54.5625 163.982 54.4135 163.995 54.2566C164.007 54.0996 163.986 53.9411 163.934 53.7997C163.826 53.5193 163.675 53.2734 163.49 53.0787C162.893 52.3663 162.24 51.7445 161.542 51.2244C161.002 50.8218 160.291 50.4985 159.806 51.0135C159.312 51.5381 159.392 52.5598 159.519 53.3904C159.242 53.1722 158.931 53.0456 158.611 53.021C158.451 53.0148 158.295 53.0832 158.168 53.2146C158.041 53.3461 157.952 53.5325 157.915 53.7424C157.91 53.9081 157.937 54.0725 157.994 54.2199C158.05 54.3672 158.134 54.4924 158.236 54.5834C156.33 54.1605 153.894 54.6403 150.78 56.5838C150.78 56.5838 147.76 57.9414 147.607 63.3027C147.592 64.1601 147.662 65.0165 147.817 65.8485C147.987 66.8204 148.592 71.5883 147.866 73.5152L151.502 75.2628L151.544 72.3248C148.718 66.8222 150.114 64.803 151.215 61.4935C151.216 61.4875 151.219 61.4822 151.223 61.4784C151.227 61.4746 151.232 61.4723 151.237 61.4718C151.241 61.4713 151.246 61.4726 151.25 61.4756C151.255 61.4786 151.258 61.4832 151.261 61.4888C151.464 61.9594 152.243 63.5727 154.925 63.5727L153.889 62.1749C153.889 62.1749 158.449 64.691 160.107 64.691C160.107 64.691 161.35 65.8092 160.107 67.4865C158.863 69.1639 156.142 71.6327 157.592 74.7078C159.043 77.7829 158.918 78.8739 158.918 78.8739L162.235 76.3579C162.235 76.3579 164.26 70.9526 164.619 69.3608C164.914 68.1511 164.992 66.8641 164.846 65.6059Z" fill="#2F2E41"/>
<path d="M124.998 126.21H190.969V175.53H182.59V189.093L173.562 175.53H124.998V126.21Z" fill="#F6DF08"/>
<path d="M180.152 140.698H135.815V143.37H180.152V140.698Z" fill="white"/>
<path d="M180.152 149.535H135.815V152.206H180.152V149.535Z" fill="white"/>
<path d="M180.152 158.371H135.815V161.043H180.152V158.371Z" fill="white"/>
<path d="M168.315 94.6082L164.445 95.8768L164.416 106.44L160.064 126.7C159.715 127.072 159.449 127.565 159.294 128.126C159.139 128.687 159.1 129.295 159.183 129.884C159.266 130.472 159.467 131.019 159.763 131.465C160.06 131.91 160.442 132.237 160.867 132.411C161.292 132.585 161.744 132.598 162.175 132.449C162.605 132.301 162.997 131.996 163.308 131.569C163.619 131.141 163.837 130.606 163.938 130.023C164.04 129.44 164.021 128.831 163.884 128.261L169.087 107.287L168.315 94.6082Z" fill="#9F616A"/>
<path d="M142.561 94.386L147.203 96.175L147.232 106.738L151.584 126.998C151.933 127.37 152.199 127.863 152.354 128.424C152.51 128.986 152.548 129.593 152.465 130.182C152.382 130.77 152.182 131.317 151.885 131.763C151.588 132.208 151.206 132.536 150.781 132.709C150.356 132.883 149.904 132.896 149.474 132.748C149.043 132.599 148.651 132.294 148.341 131.867C148.03 131.439 147.811 130.905 147.71 130.322C147.608 129.738 147.627 129.129 147.764 128.559L142.561 107.585V94.386Z" fill="#9F616A"/>
<path d="M162.508 79.1365L163.467 78.7148C164.005 78.478 164.591 78.5328 165.1 78.8676C165.1 78.8676 167.891 79.1365 168.29 81.8257C168.688 84.5149 169.658 108.02 169.658 108.02L163.746 105.483L162.508 79.1365Z" fill="#3F3D56"/>
<path d="M149.05 79.1365L147.352 79.0214L146.815 78.6589C146.815 78.6589 143.667 79.1365 143.268 81.8257C142.869 84.5149 141.709 108.745 141.709 108.745L147.621 106.57L149.05 79.1365Z" fill="#3F3D56"/>
<path d="M51.5388 174.41L54.3412 171.112C54.2214 168.744 54.0026 166.386 53.6859 164.051L52.1393 164.933L53.5741 163.245C53.1613 160.363 52.7525 158.489 52.7525 158.489C52.7525 158.489 47.0981 165.262 43.934 173.524L45.322 179.682L43.2019 175.61C42.8867 176.593 42.6175 177.602 42.3962 178.63C40.1899 189.011 40.9149 198.398 44.0156 199.597C47.1163 200.796 51.4185 193.353 53.6247 182.972C54.2685 179.647 54.5306 176.208 54.4018 172.776L51.5388 174.41Z" fill="#F1F1F1"/>
<path d="M58.9598 182.481L62.6225 181.612C63.4276 179.501 64.1438 177.331 64.7676 175.111L63.1055 174.788L64.9808 174.343C65.7319 171.588 66.1 169.699 66.1 169.699C66.1 169.699 58.6642 171.554 52.7893 176.421L51.6174 182.661L51.3632 177.696C50.7165 178.318 50.0996 178.994 49.5159 179.72C43.6489 187.069 40.6721 195.61 42.867 198.798C45.0619 201.986 51.5973 198.614 57.4642 191.265C59.2896 188.868 60.8318 186.107 62.0369 183.079L58.9598 182.481Z" fill="#F1F1F1"/>
<path d="M199.731 199.728H33.6469C33.5756 199.728 33.5073 199.69 33.4569 199.622C33.4065 199.554 33.3781 199.462 33.3781 199.366C33.3781 199.27 33.4065 199.178 33.4569 199.11C33.5073 199.042 33.5756 199.003 33.6469 199.003H199.731C199.803 199.003 199.871 199.042 199.921 199.11C199.972 199.178 200 199.27 200 199.366C200 199.462 199.972 199.554 199.921 199.622C199.871 199.69 199.803 199.728 199.731 199.728Z" fill="#CBCBCB"/>
</g>
<defs>
<clipPath id="clip0_23_362">
<rect width="200" height="200" fill="white"/>
</clipPath>
</defs>
</svg>
