<svg width="200" height="200" viewBox="0 0 200 200" fill="none" xmlns="http://www.w3.org/2000/svg">
<g clip-path="url(#clip0_23_387)">
<path d="M91.608 47.5275H90.5985V17.4234C90.5985 12.8024 88.9123 8.37074 85.9108 5.10321C82.9092 1.83569 78.8382 7.28844e-06 74.5934 0H16.0052C13.9034 -5.7741e-06 11.8222 0.450658 9.88031 1.32626C7.93847 2.20186 6.17407 3.48526 4.68784 5.10317C3.20162 6.72108 2.02268 8.64181 1.21834 10.7557C0.413996 12.8696 4.64114e-06 15.1353 0 17.4234V182.577C-1.65754e-06 184.865 0.413983 187.13 1.21832 189.244C2.02265 191.358 3.20159 193.279 4.68781 194.897C6.17403 196.515 7.93843 197.798 9.88027 198.674C11.8221 199.549 13.9034 200 16.0052 200H74.5933C78.8381 200 82.9091 198.164 85.9107 194.897C88.9122 191.629 90.5985 187.198 90.5985 182.577V68.9561H91.608V47.5275Z" fill="#E6E6E6"/>
<path d="M75.2391 4.53298H67.5914C67.9431 5.47163 68.0773 6.49003 67.9823 7.49847C67.8873 8.50691 67.5659 9.47443 67.0465 10.3158C66.5271 11.1572 65.8255 11.8466 65.0037 12.3233C64.1819 12.8 63.265 13.0494 62.3338 13.0495H28.7694C27.8382 13.0494 26.9213 12.8 26.0995 12.3233C25.2776 11.8466 24.5761 11.1572 24.0567 10.3158C23.5373 9.47442 23.2159 8.50689 23.1209 7.49845C23.0258 6.49001 23.1601 5.47161 23.5118 4.53296H16.3688C13.1988 4.53296 10.1587 5.90382 7.91714 8.34396C5.6756 10.7841 4.41633 14.0937 4.41632 17.5445V182.455C4.41632 184.164 4.72548 185.856 5.32615 187.435C5.92682 189.013 6.80723 190.448 7.91712 191.656C9.02702 192.864 10.3446 193.823 11.7948 194.477C13.2449 195.131 14.7992 195.467 16.3688 195.467H75.2391C76.8087 195.467 78.363 195.131 79.8131 194.477C81.2633 193.823 82.5809 192.864 83.6908 191.656C84.8007 190.448 85.6811 189.013 86.2818 187.435C86.8824 185.856 87.1916 184.164 87.1916 182.455V17.5446C87.1916 15.8359 86.8824 14.1439 86.2818 12.5652C85.6811 10.9866 84.8007 9.55221 83.6908 8.34398C82.5809 7.13574 81.2633 6.17731 79.8131 5.52342C78.363 4.86953 76.8087 4.53298 75.2391 4.53298Z" fill="white"/>
<path d="M11.7245 82.1482C11.6575 82.1482 11.5933 82.1193 11.546 82.0677C11.4986 82.0162 11.472 81.9463 11.472 81.8734V72.2551C11.472 72.1822 11.4986 72.1123 11.546 72.0608C11.5933 72.0092 11.6575 71.9803 11.7245 71.9803C11.7914 71.9803 11.8556 72.0092 11.903 72.0608C11.9503 72.1123 11.9769 72.1822 11.9769 72.2551V81.8734C11.9769 81.9463 11.9503 82.0162 11.903 82.0677C11.8556 82.1193 11.7914 82.1482 11.7245 82.1482Z" fill="#CCCCCC"/>
<path d="M13.4916 83.6597C13.4246 83.6597 13.3604 83.6308 13.3131 83.5792C13.2657 83.5277 13.2391 83.4578 13.2391 83.3849V70.7437C13.2391 70.6708 13.2657 70.6009 13.3131 70.5494C13.3604 70.4978 13.4246 70.4689 13.4916 70.4689C13.5585 70.4689 13.6227 70.4978 13.6701 70.5494C13.7174 70.6009 13.744 70.6708 13.744 70.7437V83.3849C13.744 83.4578 13.7174 83.5277 13.6701 83.5792C13.6227 83.6308 13.5585 83.6597 13.4916 83.6597Z" fill="#CCCCCC"/>
<path d="M15.2587 84.6215C15.1917 84.6215 15.1275 84.5926 15.0802 84.541C15.0328 84.4895 15.0062 84.4196 15.0062 84.3467V69.7818C15.0062 69.7089 15.0328 69.639 15.0802 69.5875C15.1275 69.536 15.1917 69.507 15.2587 69.507C15.3256 69.507 15.3898 69.536 15.4372 69.5875C15.4845 69.639 15.5111 69.7089 15.5111 69.7818V84.3467C15.5111 84.4196 15.4845 84.4895 15.4372 84.541C15.3898 84.5926 15.3256 84.6215 15.2587 84.6215Z" fill="#CCCCCC"/>
<path d="M17.0258 87.0948C16.9588 87.0948 16.8946 87.0659 16.8472 87.0143C16.7999 86.9628 16.7733 86.8929 16.7733 86.82V67.3086C16.7733 67.2357 16.7999 67.1658 16.8472 67.1142C16.8946 67.0627 16.9588 67.0338 17.0258 67.0338C17.0927 67.0338 17.1569 67.0627 17.2043 67.1142C17.2516 67.1658 17.2782 67.2357 17.2782 67.3086V86.82C17.2782 86.8929 17.2516 86.9628 17.2043 87.0143C17.1569 87.0659 17.0927 87.0948 17.0258 87.0948Z" fill="#CCCCCC"/>
<path d="M18.7928 90.8047C18.7259 90.8047 18.6617 90.7757 18.6143 90.7242C18.567 90.6727 18.5404 90.6028 18.5404 90.5299V63.5986C18.5404 63.5257 18.567 63.4558 18.6143 63.4043C18.6617 63.3527 18.7259 63.3238 18.7928 63.3238C18.8598 63.3238 18.924 63.3527 18.9713 63.4043C19.0187 63.4558 19.0453 63.5257 19.0453 63.5986V90.5299C19.0453 90.6028 19.0187 90.6727 18.9713 90.7242C18.924 90.7757 18.8598 90.8047 18.7928 90.8047Z" fill="#CCCCCC"/>
<path d="M20.5599 87.0948C20.493 87.0948 20.4288 87.0659 20.3814 87.0143C20.3341 86.9628 20.3075 86.8929 20.3075 86.82V67.3086C20.3075 67.2357 20.3341 67.1658 20.3814 67.1142C20.4288 67.0627 20.493 67.0338 20.5599 67.0338C20.6269 67.0338 20.6911 67.0627 20.7384 67.1142C20.7858 67.1658 20.8124 67.2357 20.8124 67.3086V86.82C20.8124 86.8929 20.7858 86.9628 20.7384 87.0143C20.6911 87.0659 20.6269 87.0948 20.5599 87.0948Z" fill="#CCCCCC"/>
<path d="M22.327 88.8811C22.2601 88.8811 22.1959 88.8521 22.1485 88.8006C22.1012 88.749 22.0746 88.6792 22.0746 88.6063V65.5223C22.0746 65.4494 22.1012 65.3795 22.1485 65.328C22.1959 65.2764 22.2601 65.2475 22.327 65.2475C22.394 65.2475 22.4582 65.2764 22.5055 65.328C22.5529 65.3795 22.5795 65.4494 22.5795 65.5223V88.6063C22.5795 88.6792 22.5529 88.749 22.5055 88.8006C22.4582 88.8521 22.394 88.8811 22.327 88.8811Z" fill="#CCCCCC"/>
<path d="M24.0941 84.2093C24.0272 84.2093 23.963 84.1804 23.9156 84.1288C23.8683 84.0773 23.8417 84.0074 23.8417 83.9345V70.1941C23.8417 70.1212 23.8683 70.0513 23.9156 69.9997C23.963 69.9482 24.0272 69.9193 24.0941 69.9193C24.1611 69.9193 24.2253 69.9482 24.2726 69.9997C24.32 70.0513 24.3466 70.1212 24.3466 70.1941V83.9345C24.3466 84.0074 24.32 84.0773 24.2726 84.1288C24.2253 84.1804 24.1611 84.2093 24.0941 84.2093Z" fill="#CCCCCC"/>
<path d="M25.8612 85.3086C25.7943 85.3086 25.73 85.2796 25.6827 85.2281C25.6354 85.1765 25.6088 85.1066 25.6088 85.0337V69.0948C25.6088 69.0219 25.6354 68.952 25.6827 68.9005C25.73 68.849 25.7943 68.82 25.8612 68.82C25.9282 68.82 25.9924 68.849 26.0397 68.9005C26.087 68.952 26.1136 69.0219 26.1136 69.0948V85.0337C26.1136 85.1066 26.087 85.1765 26.0397 85.2281C25.9924 85.2796 25.9282 85.3086 25.8612 85.3086Z" fill="#CCCCCC"/>
<path d="M27.6282 82.1482C27.5613 82.1482 27.4971 82.1193 27.4497 82.0677C27.4024 82.0162 27.3758 81.9463 27.3758 81.8734V72.2551C27.3758 72.1822 27.4024 72.1123 27.4497 72.0608C27.4971 72.0092 27.5613 71.9803 27.6282 71.9803C27.6952 71.9803 27.7594 72.0092 27.8067 72.0608C27.8541 72.1123 27.8807 72.1822 27.8807 72.2551V81.8734C27.8807 81.9463 27.8541 82.0162 27.8067 82.0677C27.7594 82.1193 27.6952 82.1482 27.6282 82.1482Z" fill="#CCCCCC"/>
<path d="M29.1429 82.1482C29.0759 82.1482 29.0117 82.1193 28.9644 82.0677C28.917 82.0162 28.8904 81.9463 28.8904 81.8734V72.2551C28.8904 72.1822 28.917 72.1123 28.9644 72.0608C29.0117 72.0092 29.0759 71.9803 29.1429 71.9803C29.2098 71.9803 29.274 72.0092 29.3214 72.0608C29.3687 72.1123 29.3953 72.1822 29.3953 72.2551V81.8734C29.3953 81.9463 29.3687 82.0162 29.3214 82.0677C29.274 82.1193 29.2098 82.1482 29.1429 82.1482Z" fill="#CCCCCC"/>
<path d="M30.91 83.6597C30.843 83.6597 30.7788 83.6308 30.7315 83.5792C30.6841 83.5277 30.6575 83.4578 30.6575 83.3849V70.7437C30.6575 70.6708 30.6841 70.6009 30.7315 70.5494C30.7788 70.4978 30.843 70.4689 30.91 70.4689C30.9769 70.4689 31.0411 70.4978 31.0885 70.5494C31.1358 70.6009 31.1624 70.6708 31.1624 70.7437V83.3849C31.1624 83.4578 31.1358 83.5277 31.0885 83.5792C31.0411 83.6308 30.9769 83.6597 30.91 83.6597Z" fill="#CCCCCC"/>
<path d="M32.6771 84.6215C32.6101 84.6215 32.5459 84.5926 32.4986 84.541C32.4512 84.4895 32.4246 84.4196 32.4246 84.3467V69.7818C32.4246 69.7089 32.4512 69.639 32.4986 69.5875C32.5459 69.536 32.6101 69.507 32.6771 69.507C32.744 69.507 32.8082 69.536 32.8556 69.5875C32.9029 69.639 32.9295 69.7089 32.9295 69.7818V84.3467C32.9295 84.4196 32.9029 84.4895 32.8556 84.541C32.8082 84.5926 32.744 84.6215 32.6771 84.6215Z" fill="#CCCCCC"/>
<path d="M34.4442 87.0948C34.3772 87.0948 34.313 87.0659 34.2656 87.0143C34.2183 86.9628 34.1917 86.8929 34.1917 86.82V67.3086C34.1917 67.2357 34.2183 67.1658 34.2656 67.1142C34.313 67.0627 34.3772 67.0338 34.4442 67.0338C34.5111 67.0338 34.5753 67.0627 34.6227 67.1142C34.67 67.1658 34.6966 67.2357 34.6966 67.3086V86.82C34.6966 86.8929 34.67 86.9628 34.6227 87.0143C34.5753 87.0659 34.5111 87.0948 34.4442 87.0948Z" fill="#CCCCCC"/>
<path d="M36.2112 95.2017C36.1443 95.2017 36.0801 95.1727 36.0327 95.1212C35.9854 95.0696 35.9588 94.9998 35.9588 94.9269V59.2017C35.9588 59.1288 35.9854 59.0589 36.0327 59.0074C36.0801 58.9558 36.1443 58.9269 36.2112 58.9269C36.2782 58.9269 36.3424 58.9558 36.3897 59.0074C36.4371 59.0589 36.4637 59.1288 36.4637 59.2017V94.9269C36.4637 94.9998 36.4371 95.0696 36.3897 95.1212C36.3424 95.1727 36.2782 95.2017 36.2112 95.2017Z" fill="#CCCCCC"/>
<path d="M37.9783 87.0948C37.9114 87.0948 37.8472 87.0659 37.7998 87.0143C37.7525 86.9628 37.7259 86.8929 37.7259 86.82V67.3086C37.7259 67.2357 37.7525 67.1658 37.7998 67.1142C37.8472 67.0627 37.9114 67.0338 37.9783 67.0338C38.0453 67.0338 38.1095 67.0627 38.1568 67.1142C38.2042 67.1658 38.2308 67.2357 38.2308 67.3086V86.82C38.2308 86.8929 38.2042 86.9628 38.1568 87.0143C38.1095 87.0659 38.0453 87.0948 37.9783 87.0948Z" fill="#CCCCCC"/>
<path d="M39.7454 88.8811C39.6785 88.8811 39.6143 88.8521 39.5669 88.8006C39.5196 88.749 39.493 88.6792 39.493 88.6063V65.5223C39.493 65.4494 39.5196 65.3795 39.5669 65.328C39.6143 65.2764 39.6785 65.2475 39.7454 65.2475C39.8124 65.2475 39.8766 65.2764 39.9239 65.328C39.9713 65.3795 39.9979 65.4494 39.9979 65.5223V88.6063C39.9979 88.6792 39.9713 88.749 39.9239 88.8006C39.8766 88.8521 39.8124 88.8811 39.7454 88.8811Z" fill="#CCCCCC"/>
<path d="M41.5125 84.2093C41.4456 84.2093 41.3813 84.1804 41.334 84.1288C41.2867 84.0773 41.2601 84.0074 41.2601 83.9345V70.1941C41.2601 70.1212 41.2867 70.0513 41.334 69.9997C41.3813 69.9482 41.4456 69.9193 41.5125 69.9193C41.5795 69.9193 41.6437 69.9482 41.691 69.9997C41.7384 70.0513 41.765 70.1212 41.765 70.1941V83.9345C41.765 84.0074 41.7384 84.0773 41.691 84.1288C41.6437 84.1804 41.5795 84.2093 41.5125 84.2093Z" fill="#CCCCCC"/>
<path d="M43.2796 85.3086C43.2126 85.3086 43.1484 85.2796 43.1011 85.2281C43.0538 85.1765 43.0272 85.1066 43.0272 85.0337V69.0948C43.0272 69.0219 43.0538 68.952 43.1011 68.9005C43.1484 68.849 43.2126 68.82 43.2796 68.82C43.3466 68.82 43.4108 68.849 43.4581 68.9005C43.5054 68.952 43.532 69.0219 43.532 69.0948V85.0337C43.532 85.1066 43.5054 85.1765 43.4581 85.2281C43.4108 85.2796 43.3466 85.3086 43.2796 85.3086Z" fill="#CCCCCC"/>
<path d="M45.0467 82.1482C44.9797 82.1482 44.9155 82.1193 44.8682 82.0677C44.8208 82.0162 44.7943 81.9463 44.7943 81.8734V72.2551C44.7943 72.1822 44.8208 72.1123 44.8682 72.0608C44.9155 72.0092 44.9797 71.9803 45.0467 71.9803C45.1136 71.9803 45.1778 72.0092 45.2252 72.0608C45.2725 72.1123 45.2991 72.1822 45.2991 72.2551V81.8734C45.2991 81.9463 45.2725 82.0162 45.2252 82.0677C45.1778 82.1193 45.1136 82.1482 45.0467 82.1482Z" fill="#CCCCCC"/>
<path d="M46.5613 82.1482C46.4944 82.1482 46.4302 82.1193 46.3828 82.0677C46.3355 82.0162 46.3089 81.9463 46.3089 81.8734V72.2551C46.3089 72.1822 46.3355 72.1123 46.3828 72.0608C46.4302 72.0092 46.4944 71.9803 46.5613 71.9803C46.6283 71.9803 46.6925 72.0092 46.7398 72.0608C46.7872 72.1123 46.8138 72.1822 46.8138 72.2551V81.8734C46.8138 81.9463 46.7872 82.0162 46.7398 82.0677C46.6925 82.1193 46.6283 82.1482 46.5613 82.1482Z" fill="#CCCCCC"/>
<path d="M48.3284 83.6597C48.2614 83.6597 48.1972 83.6308 48.1499 83.5792C48.1025 83.5277 48.0759 83.4578 48.0759 83.3849V70.7437C48.0759 70.6708 48.1025 70.6009 48.1499 70.5494C48.1972 70.4978 48.2614 70.4689 48.3284 70.4689C48.3953 70.4689 48.4595 70.4978 48.5069 70.5494C48.5542 70.6009 48.5808 70.6708 48.5808 70.7437V83.3849C48.5808 83.4578 48.5542 83.5277 48.5069 83.5792C48.4595 83.6308 48.3953 83.6597 48.3284 83.6597Z" fill="#CCCCCC"/>
<path d="M50.0955 84.6215C50.0285 84.6215 49.9643 84.5926 49.917 84.541C49.8696 84.4895 49.843 84.4196 49.843 84.3467V69.7818C49.843 69.7089 49.8696 69.639 49.917 69.5875C49.9643 69.536 50.0285 69.507 50.0955 69.507C50.1624 69.507 50.2266 69.536 50.274 69.5875C50.3213 69.639 50.3479 69.7089 50.3479 69.7818V84.3467C50.3479 84.4196 50.3213 84.4895 50.274 84.541C50.2266 84.5926 50.1624 84.6215 50.0955 84.6215Z" fill="#CCCCCC"/>
<path d="M51.8625 87.0948C51.7956 87.0948 51.7314 87.0659 51.684 87.0143C51.6367 86.9628 51.6101 86.8929 51.6101 86.82V67.3086C51.6101 67.2357 51.6367 67.1658 51.684 67.1142C51.7314 67.0627 51.7956 67.0338 51.8625 67.0338C51.9295 67.0338 51.9937 67.0627 52.041 67.1142C52.0884 67.1658 52.115 67.2357 52.115 67.3086V86.82C52.115 86.8929 52.0884 86.9628 52.041 87.0143C51.9937 87.0659 51.9295 87.0948 51.8625 87.0948Z" fill="#CCCCCC"/>
<path d="M53.6296 90.8047C53.5627 90.8047 53.4985 90.7757 53.4511 90.7242C53.4038 90.6727 53.3772 90.6028 53.3772 90.5299V63.5986C53.3772 63.5257 53.4038 63.4558 53.4511 63.4043C53.4985 63.3527 53.5627 63.3238 53.6296 63.3238C53.6966 63.3238 53.7608 63.3527 53.8081 63.4043C53.8555 63.4558 53.8821 63.5257 53.8821 63.5986V90.5299C53.8821 90.6028 53.8555 90.6727 53.8081 90.7242C53.7608 90.7757 53.6966 90.8047 53.6296 90.8047Z" fill="#CCCCCC"/>
<path d="M54.8918 102.965C54.8249 102.965 54.7607 102.936 54.7133 102.885C54.666 102.833 54.6394 102.763 54.6394 102.69V51.4383C54.6394 51.3654 54.666 51.2955 54.7133 51.244C54.7607 51.1925 54.8249 51.1635 54.8918 51.1635C54.9588 51.1635 55.023 51.1925 55.0703 51.244C55.1177 51.2955 55.1443 51.3654 55.1443 51.4383V102.69C55.1443 102.763 55.1177 102.833 55.0703 102.885C55.023 102.936 54.9588 102.965 54.8918 102.965Z" fill="#F6DF08"/>
<path d="M55.3967 87.0948C55.3298 87.0948 55.2656 87.0659 55.2182 87.0143C55.1709 86.9628 55.1443 86.8929 55.1443 86.82V67.3086C55.1443 67.2357 55.1709 67.1658 55.2182 67.1142C55.2656 67.0627 55.3298 67.0338 55.3967 67.0338C55.4637 67.0338 55.5279 67.0627 55.5752 67.1142C55.6226 67.1658 55.6492 67.2357 55.6492 67.3086V86.82C55.6492 86.8929 55.6226 86.9628 55.5752 87.0143C55.5279 87.0659 55.4637 87.0948 55.3967 87.0948Z" fill="#CCCCCC"/>
<path d="M57.1638 88.8811C57.0969 88.8811 57.0327 88.8521 56.9853 88.8006C56.938 88.749 56.9114 88.6792 56.9114 88.6063V65.5223C56.9114 65.4494 56.938 65.3795 56.9853 65.328C57.0327 65.2764 57.0969 65.2475 57.1638 65.2475C57.2308 65.2475 57.295 65.2764 57.3423 65.328C57.3897 65.3795 57.4163 65.4494 57.4163 65.5223V88.6063C57.4163 88.6792 57.3897 88.749 57.3423 88.8006C57.295 88.8521 57.2308 88.8811 57.1638 88.8811Z" fill="#CCCCCC"/>
<path d="M58.9309 84.2093C58.864 84.2093 58.7997 84.1804 58.7524 84.1288C58.7051 84.0773 58.6785 84.0074 58.6785 83.9345V70.1941C58.6785 70.1212 58.7051 70.0513 58.7524 69.9997C58.7997 69.9482 58.864 69.9193 58.9309 69.9193C58.9979 69.9193 59.0621 69.9482 59.1094 69.9997C59.1567 70.0513 59.1833 70.1212 59.1833 70.1941V83.9345C59.1833 84.0074 59.1567 84.0773 59.1094 84.1288C59.0621 84.1804 58.9979 84.2093 58.9309 84.2093Z" fill="#CCCCCC"/>
<path d="M60.698 85.3086C60.631 85.3086 60.5668 85.2796 60.5195 85.2281C60.4721 85.1765 60.4456 85.1066 60.4456 85.0337V69.0948C60.4456 69.0219 60.4721 68.952 60.5195 68.9005C60.5668 68.849 60.631 68.82 60.698 68.82C60.7649 68.82 60.8292 68.849 60.8765 68.9005C60.9238 68.952 60.9504 69.0219 60.9504 69.0948V85.0337C60.9504 85.1066 60.9238 85.1765 60.8765 85.2281C60.8292 85.2796 60.7649 85.3086 60.698 85.3086Z" fill="#CCCCCC"/>
<path d="M62.4651 82.1482C62.3981 82.1482 62.3339 82.1193 62.2866 82.0677C62.2392 82.0162 62.2126 81.9463 62.2126 81.8734V72.2551C62.2126 72.1822 62.2392 72.1123 62.2866 72.0608C62.3339 72.0092 62.3981 71.9803 62.4651 71.9803C62.532 71.9803 62.5962 72.0092 62.6436 72.0608C62.6909 72.1123 62.7175 72.1822 62.7175 72.2551V81.8734C62.7175 81.9463 62.6909 82.0162 62.6436 82.0677C62.5962 82.1193 62.532 82.1482 62.4651 82.1482Z" fill="#CCCCCC"/>
<path d="M63.9797 82.1482C63.9128 82.1482 63.8486 82.1193 63.8012 82.0677C63.7539 82.0162 63.7273 81.9463 63.7273 81.8734V72.2551C63.7273 72.1822 63.7539 72.1123 63.8012 72.0608C63.8486 72.0092 63.9128 71.9803 63.9797 71.9803C64.0467 71.9803 64.1109 72.0092 64.1582 72.0608C64.2056 72.1123 64.2322 72.1822 64.2322 72.2551V81.8734C64.2322 81.9463 64.2056 82.0162 64.1582 82.0677C64.1109 82.1193 64.0467 82.1482 63.9797 82.1482Z" fill="#CCCCCC"/>
<path d="M65.7468 83.6597C65.6799 83.6597 65.6157 83.6308 65.5683 83.5792C65.521 83.5277 65.4944 83.4578 65.4944 83.3849V70.7437C65.4944 70.6708 65.521 70.6009 65.5683 70.5494C65.6157 70.4978 65.6799 70.4689 65.7468 70.4689C65.8138 70.4689 65.878 70.4978 65.9253 70.5494C65.9727 70.6009 65.9993 70.6708 65.9993 70.7437V83.3849C65.9993 83.4578 65.9727 83.5277 65.9253 83.5792C65.878 83.6308 65.8138 83.6597 65.7468 83.6597Z" fill="#CCCCCC"/>
<path d="M67.5139 84.6215C67.447 84.6215 67.3828 84.5926 67.3354 84.541C67.2881 84.4895 67.2615 84.4196 67.2615 84.3467V69.7818C67.2615 69.7089 67.2881 69.639 67.3354 69.5875C67.3828 69.536 67.447 69.507 67.5139 69.507C67.5809 69.507 67.6451 69.536 67.6924 69.5875C67.7398 69.639 67.7664 69.7089 67.7664 69.7818V84.3467C67.7664 84.4196 67.7398 84.4895 67.6924 84.541C67.6451 84.5926 67.5809 84.6215 67.5139 84.6215Z" fill="#CCCCCC"/>
<path d="M69.2809 87.0948C69.214 87.0948 69.1498 87.0659 69.1024 87.0143C69.0551 86.9628 69.0285 86.8929 69.0285 86.82V67.3086C69.0285 67.2357 69.0551 67.1658 69.1024 67.1142C69.1498 67.0627 69.214 67.0338 69.2809 67.0338C69.3479 67.0338 69.4121 67.0627 69.4594 67.1142C69.5068 67.1658 69.5334 67.2357 69.5334 67.3086V86.82C69.5334 86.8929 69.5068 86.9628 69.4594 87.0143C69.4121 87.0659 69.3479 87.0948 69.2809 87.0948Z" fill="#CCCCCC"/>
<path d="M71.048 95.2017C70.9811 95.2017 70.9169 95.1727 70.8695 95.1212C70.8222 95.0696 70.7956 94.9998 70.7956 94.9269V59.2017C70.7956 59.1288 70.8222 59.0589 70.8695 59.0074C70.9169 58.9558 70.9811 58.9269 71.048 58.9269C71.115 58.9269 71.1792 58.9558 71.2265 59.0074C71.2739 59.0589 71.3005 59.1288 71.3005 59.2017V94.9269C71.3005 94.9998 71.2739 95.0696 71.2265 95.1212C71.1792 95.1727 71.115 95.2017 71.048 95.2017Z" fill="#CCCCCC"/>
<path d="M72.8151 87.0948C72.7482 87.0948 72.684 87.0659 72.6366 87.0143C72.5893 86.9628 72.5627 86.8929 72.5627 86.82V67.3086C72.5627 67.2357 72.5893 67.1658 72.6366 67.1142C72.684 67.0627 72.7482 67.0338 72.8151 67.0338C72.8821 67.0338 72.9463 67.0627 72.9936 67.1142C73.041 67.1658 73.0676 67.2357 73.0676 67.3086V86.82C73.0676 86.8929 73.041 86.9628 72.9936 87.0143C72.9463 87.0659 72.8821 87.0948 72.8151 87.0948Z" fill="#CCCCCC"/>
<path d="M74.5822 88.8811C74.5153 88.8811 74.451 88.8521 74.4037 88.8006C74.3564 88.749 74.3298 88.6792 74.3298 88.6063V65.5223C74.3298 65.4494 74.3564 65.3795 74.4037 65.328C74.451 65.2764 74.5153 65.2475 74.5822 65.2475C74.6492 65.2475 74.7134 65.2764 74.7607 65.328C74.8081 65.3795 74.8347 65.4494 74.8347 65.5223V88.6063C74.8347 88.6792 74.8081 88.749 74.7607 88.8006C74.7134 88.8521 74.6492 88.8811 74.5822 88.8811Z" fill="#CCCCCC"/>
<path d="M76.3493 84.2093C76.2824 84.2093 76.2181 84.1804 76.1708 84.1288C76.1235 84.0773 76.0969 84.0074 76.0969 83.9345V70.1941C76.0969 70.1212 76.1235 70.0513 76.1708 69.9997C76.2181 69.9482 76.2824 69.9193 76.3493 69.9193C76.4163 69.9193 76.4805 69.9482 76.5278 69.9997C76.5751 70.0513 76.6017 70.1212 76.6017 70.1941V83.9345C76.6017 84.0074 76.5751 84.0773 76.5278 84.1288C76.4805 84.1804 76.4163 84.2093 76.3493 84.2093Z" fill="#CCCCCC"/>
<path d="M78.1164 85.3086C78.0494 85.3086 77.9852 85.2796 77.9379 85.2281C77.8906 85.1765 77.864 85.1066 77.864 85.0337V69.0948C77.864 69.0219 77.8906 68.952 77.9379 68.9005C77.9852 68.849 78.0494 68.82 78.1164 68.82C78.1833 68.82 78.2476 68.849 78.2949 68.9005C78.3422 68.952 78.3688 69.0219 78.3688 69.0948V85.0337C78.3688 85.1066 78.3422 85.1765 78.2949 85.2281C78.2476 85.2796 78.1833 85.3086 78.1164 85.3086Z" fill="#CCCCCC"/>
<path d="M79.8835 82.1482C79.8165 82.1482 79.7523 82.1193 79.705 82.0677C79.6576 82.0162 79.631 81.9463 79.631 81.8734V72.2551C79.631 72.1822 79.6576 72.1123 79.705 72.0608C79.7523 72.0092 79.8165 71.9803 79.8835 71.9803C79.9504 71.9803 80.0147 72.0092 80.062 72.0608C80.1093 72.1123 80.1359 72.1822 80.1359 72.2551V81.8734C80.1359 81.9463 80.1093 82.0162 80.062 82.0677C80.0147 82.1193 79.9504 82.1482 79.8835 82.1482Z" fill="#CCCCCC"/>
<path d="M18.7928 148.521V158.331L25.8612 153.426L18.7928 148.521Z" fill="#3F3D56"/>
<path d="M48.8731 157.318C50.8418 155.177 50.8376 151.697 48.8637 149.546C46.8899 147.396 43.6938 147.388 41.7251 149.529C39.7564 151.67 39.7606 155.149 41.7345 157.3C43.7084 159.451 46.9044 159.459 48.8731 157.318Z" fill="#F6DF08"/>
<path d="M67.3347 157.82H65.6054C65.3762 157.82 65.1564 157.721 64.9941 157.545C64.8318 157.369 64.7402 157.13 64.7396 156.88V149.972C64.7402 149.722 64.8317 149.483 64.9939 149.306C65.1561 149.129 65.376 149.03 65.6054 149.029H67.3347C67.5643 149.029 67.7845 149.128 67.9469 149.305C68.1093 149.482 68.2005 149.722 68.2005 149.972V156.883C68.2002 157.007 68.1775 157.129 68.1338 157.243C68.0902 157.356 68.0263 157.46 67.9459 157.547C67.8655 157.634 67.7701 157.703 67.6652 157.75C67.5604 157.797 67.448 157.821 67.3347 157.82ZM72.8151 156.883V149.972C72.8151 149.722 72.7243 149.483 72.5624 149.306C72.4006 149.129 72.181 149.03 71.9518 149.029H70.22C69.9906 149.03 69.7708 149.129 69.6085 149.306C69.4463 149.483 69.3548 149.722 69.3542 149.972V156.883C69.3548 157.133 69.4464 157.372 69.6087 157.548C69.771 157.724 69.9908 157.823 70.22 157.823H71.9518C72.0652 157.823 72.1774 157.799 72.2822 157.751C72.3869 157.704 72.4821 157.635 72.5623 157.548C72.6424 157.46 72.706 157.357 72.7494 157.243C72.7928 157.129 72.8151 157.007 72.8151 156.883Z" fill="#3F3D56"/>
<path d="M67.9296 110.32H23.6783C23.5987 110.32 23.5225 110.285 23.4663 110.224C23.4101 110.162 23.3786 110.079 23.3786 109.993C23.3786 109.906 23.4101 109.823 23.4663 109.762C23.5225 109.7 23.5987 109.666 23.6783 109.665H67.9296C68.0094 109.665 68.0858 109.7 68.1422 109.761C68.1986 109.823 68.2302 109.906 68.2302 109.993C68.2302 110.079 68.1986 110.163 68.1422 110.224C68.0858 110.285 68.0094 110.32 67.9296 110.32Z" fill="#CCCCCC"/>
<path d="M67.9296 44.3657H23.6783C23.5987 44.3655 23.5225 44.3309 23.4663 44.2696C23.4101 44.2082 23.3786 44.1251 23.3786 44.0385C23.3786 43.9519 23.4101 43.8688 23.4663 43.8075C23.5225 43.7461 23.5987 43.7116 23.6783 43.7113H67.9296C68.0092 43.7116 68.0854 43.7461 68.1416 43.8075C68.1978 43.8688 68.2293 43.9519 68.2293 44.0385C68.2293 44.1251 68.1978 44.2082 68.1416 44.2696C68.0854 44.3309 68.0092 44.3655 67.9296 44.3657Z" fill="#CCCCCC"/>
<path d="M139.506 87.2441C139.475 87.2441 139.445 87.2419 139.414 87.2376L130.782 86.0039C130.656 85.9855 130.536 85.9306 130.435 85.8447C130.335 85.7589 130.258 85.6452 130.211 85.5157C130.165 85.3862 130.151 85.2455 130.172 85.1083C130.193 84.9711 130.247 84.8425 130.329 84.7358L136.345 76.9303C136.427 76.8228 136.534 76.7412 136.655 76.6943C136.776 76.6474 136.906 76.6368 137.032 76.6637C137.157 76.6907 137.274 76.7541 137.37 76.8473C137.465 76.9405 137.536 77.0601 137.574 77.1933L140.186 86.233C140.22 86.3494 140.228 86.4728 140.21 86.5932C140.192 86.7136 140.148 86.8277 140.082 86.9261C140.015 87.0246 139.929 87.1047 139.829 87.1599C139.729 87.2152 139.618 87.244 139.506 87.2441Z" fill="#F2F2F2"/>
<path d="M123.34 129.55C123.152 129.55 122.972 129.469 122.839 129.326C122.705 129.183 122.629 128.988 122.627 128.784L122.515 118.595C122.513 118.456 122.545 118.318 122.608 118.197C122.672 118.075 122.764 117.975 122.876 117.906C122.987 117.837 123.114 117.802 123.242 117.805C123.37 117.808 123.496 117.849 123.604 117.923L130.998 122.924C131.1 122.993 131.185 123.088 131.244 123.202C131.303 123.316 131.335 123.444 131.336 123.574C131.338 123.705 131.309 123.834 131.253 123.949C131.197 124.064 131.115 124.162 131.014 124.234L123.73 129.424C123.617 129.504 123.485 129.548 123.35 129.55H123.34Z" fill="#F2F2F2"/>
<path d="M192.004 145.214C191.816 145.214 191.636 145.133 191.503 144.99C191.369 144.847 191.293 144.652 191.29 144.448L191.179 134.259C191.177 134.12 191.209 133.982 191.272 133.861C191.336 133.739 191.428 133.639 191.54 133.57C191.651 133.501 191.778 133.466 191.906 133.469C192.034 133.472 192.159 133.513 192.268 133.587L199.662 138.588C199.764 138.657 199.849 138.752 199.908 138.866C199.967 138.98 199.999 139.108 200 139.238C200.002 139.369 199.973 139.498 199.917 139.613C199.861 139.728 199.779 139.826 199.678 139.898L192.394 145.088C192.281 145.168 192.149 145.212 192.014 145.214H192.004Z" fill="#F2F2F2"/>
<path d="M156.056 110.926C154.009 109.903 152.663 106.976 152.74 104.089C152.817 101.202 154.212 98.5023 156.137 97.1256C157.075 96.4712 158.148 96.0807 159.259 95.9893C160.37 95.8979 161.485 96.1084 162.503 96.602C164.569 97.5591 167.342 97.8199 168.584 100.199C169.538 102.027 169.194 106.106 168.519 108.139C167.935 109.896 166.507 110.886 165.115 111.44C163.574 112.048 161.931 112.288 160.297 112.145C158.664 112.002 157.077 111.478 155.646 110.61" fill="#2F2E41"/>
<path d="M178.701 191.653L175.801 192.828L170.257 181.208L174.537 179.474L178.701 191.653Z" fill="#FFB8B8"/>
<path d="M173.42 192.765L179.014 190.499L180.325 194.333L171.209 198.026C171.037 197.523 170.958 196.987 170.976 196.451C170.994 195.914 171.109 195.386 171.314 194.897C171.519 194.409 171.811 193.969 172.172 193.603C172.534 193.237 172.958 192.953 173.42 192.765Z" fill="#2F2E41"/>
<path d="M150.878 194.898H147.783L146.311 181.903H150.878L150.878 194.898Z" fill="#FFB8B8"/>
<path d="M145.572 193.935H151.541V198.026H141.814C141.814 197.489 141.911 196.957 142.1 196.461C142.289 195.964 142.566 195.513 142.915 195.133C143.264 194.754 143.678 194.452 144.134 194.247C144.59 194.041 145.079 193.935 145.572 193.935Z" fill="#2F2E41"/>
<path d="M141.468 148.056C141.862 148.009 142.242 147.87 142.581 147.646C142.92 147.423 143.211 147.122 143.431 146.763C143.652 146.404 143.797 145.997 143.858 145.571C143.919 145.144 143.892 144.709 143.781 144.294L153.962 125.175L150.401 123.625L140.224 142.318C139.597 142.567 139.076 143.058 138.759 143.697C138.442 144.337 138.352 145.081 138.505 145.788C138.658 146.495 139.044 147.117 139.591 147.534C140.137 147.952 140.804 148.138 141.468 148.056Z" fill="#FFB8B8"/>
<path d="M151.675 131.972L146.265 128.312L151.367 118.191C151.591 117.746 151.895 117.354 152.261 117.039C152.627 116.724 153.048 116.492 153.498 116.357C153.947 116.222 154.418 116.186 154.88 116.253C155.343 116.319 155.789 116.485 156.191 116.742C156.594 116.999 156.945 117.341 157.224 117.749C157.503 118.156 157.704 118.62 157.815 119.113C157.926 119.607 157.945 120.119 157.871 120.621C157.798 121.122 157.632 121.603 157.385 122.033L151.675 131.972Z" fill="#2F2E41"/>
<path d="M172.334 186.08C172.124 186.08 171.918 186.016 171.74 185.896C171.561 185.776 171.417 185.604 171.323 185.399L157.862 155.238C157.78 155.06 157.648 154.915 157.486 154.822C157.324 154.729 157.14 154.693 156.958 154.719C156.777 154.745 156.607 154.832 156.473 154.968C156.339 155.104 156.247 155.281 156.209 155.476L151.414 184.223C151.36 184.501 151.221 184.751 151.018 184.931C150.816 185.111 150.563 185.209 150.301 185.211H147.246C146.963 185.212 146.689 185.097 146.479 184.889C146.269 184.681 146.139 184.394 146.115 184.087C144.238 161.666 145.254 145.351 149.134 135.594C149.243 135.323 149.438 135.103 149.684 134.975C149.929 134.847 150.208 134.818 150.471 134.893L165.981 139.429C166.176 139.487 166.354 139.6 166.496 139.756C166.638 139.913 166.739 140.109 166.788 140.322L176.509 183.486C176.579 183.792 176.54 184.115 176.399 184.39C176.257 184.665 176.025 184.871 175.749 184.966L172.679 186.022C172.568 186.06 172.451 186.08 172.334 186.08Z" fill="#2F2E41"/>
<path d="M160.287 113.663C163.711 113.663 166.487 110.641 166.487 106.914C166.487 103.186 163.711 100.164 160.287 100.164C156.862 100.164 154.086 103.186 154.086 106.914C154.086 110.641 156.862 113.663 160.287 113.663Z" fill="#FFB8B8"/>
<path d="M166.142 116.783C166.142 116.783 160.589 113.485 156.297 117.058C156.297 117.058 150.87 122.966 152.637 128.737L148.219 142.34C151.715 149.556 161.948 148.388 166.9 142.34L166.521 129.287L166.142 116.783Z" fill="#F6DF08"/>
<path d="M169.658 153.12C168.692 153.149 167.734 152.917 166.871 152.445C165.507 151.649 164.668 150.151 164.377 147.994C163.89 144.39 164.291 139.437 164.715 134.193C165.268 127.373 165.839 120.321 164.31 116.44C164.23 116.235 164.202 116.011 164.23 115.791C164.257 115.571 164.338 115.364 164.465 115.19C164.592 115.016 164.759 114.882 164.95 114.803C165.141 114.725 165.347 114.703 165.548 114.741L169.897 115.557C170.123 115.601 170.332 115.718 170.496 115.892C170.661 116.067 170.773 116.292 170.818 116.537L176.846 149.873C176.896 150.143 176.861 150.423 176.747 150.669C176.633 150.915 176.447 151.113 176.218 151.23C174.905 151.903 172.179 153.12 169.658 153.12Z" fill="#2F2E41"/>
<path d="M146.888 152.677C146.732 152.677 146.578 152.642 146.435 152.574C145.72 152.238 144.731 151.749 143.496 151.121C140.084 149.388 149.081 125.446 150.919 120.665C150.983 120.498 151.079 120.349 151.202 120.228L156.127 115.349C156.317 115.188 156.549 115.096 156.789 115.088C157.03 115.08 157.267 115.155 157.465 115.303C157.664 115.451 157.815 115.663 157.895 115.91C157.976 116.157 157.982 116.426 157.913 116.677C157.049 119.83 155.518 125.115 153.898 130.711C151.34 139.542 148.695 148.674 147.988 151.743C147.927 152.01 147.785 152.246 147.586 152.416C147.386 152.585 147.141 152.677 146.888 152.677Z" fill="#2F2E41"/>
<path d="M181.503 146.886C181.707 146.516 181.833 146.101 181.874 145.672C181.915 145.243 181.868 144.809 181.738 144.401C181.608 143.993 181.398 143.622 181.121 143.312C180.845 143.002 180.51 142.763 180.139 142.609L172.256 122.245L168.974 124.405L176.547 144.509C176.352 145.204 176.398 145.953 176.676 146.613C176.954 147.274 177.445 147.801 178.055 148.094C178.666 148.387 179.355 148.425 179.99 148.203C180.625 147.98 181.164 147.512 181.503 146.886Z" fill="#FFB8B8"/>
<path d="M169.918 130.823L165.572 120.292C165.38 119.829 165.276 119.328 165.266 118.821C165.256 118.313 165.339 117.808 165.511 117.335C165.683 116.863 165.94 116.433 166.267 116.071C166.594 115.709 166.985 115.422 167.416 115.227C167.847 115.032 168.309 114.933 168.776 114.936C169.243 114.939 169.704 115.044 170.133 115.245C170.561 115.445 170.949 115.738 171.272 116.104C171.595 116.47 171.848 116.904 172.014 117.378L175.861 128.327L169.918 130.823Z" fill="#2F2E41"/>
<path d="M164.695 98.5126C164.918 98.5481 165.146 98.5024 165.343 98.3827C165.54 98.263 165.695 98.0759 165.784 97.8505C165.867 97.622 165.901 97.376 165.883 97.1313C165.864 96.8865 165.795 96.6496 165.68 96.4386C165.445 96.0181 165.117 95.6683 164.726 95.4209C164.276 95.0935 163.756 94.8986 163.216 94.8553C162.947 94.8361 162.677 94.8801 162.425 94.9844C162.172 95.0887 161.944 95.2508 161.754 95.4597C161.569 95.6739 161.446 95.9432 161.403 96.2334C161.359 96.5236 161.396 96.8214 161.508 97.0887C161.735 97.5646 162.211 97.8315 162.674 98.0127C163.594 98.3713 164.573 98.5113 165.547 98.4234" fill="#2F2E41"/>
<path d="M166.9 105.791C165.934 106.097 165.986 105.53 165.456 104.599C164.927 103.668 164.238 102.572 163.233 102.63C162.41 102.678 161.836 103.492 161.249 104.123C160.203 105.246 158.685 105.958 157.249 105.615C155.814 105.272 154.63 103.66 154.945 102.097C155.051 101.663 155.237 101.256 155.492 100.903C155.747 100.55 156.066 100.258 156.43 100.045C157.159 99.6234 157.96 99.3685 158.784 99.2959C160.606 99.0679 162.452 99.2781 164.191 99.9116C165.391 100.35 166.598 101.059 167.196 102.275C167.794 103.49 168.317 105.249 167.152 105.791L166.9 105.791Z" fill="#2F2E41"/>
<path d="M163.842 95.031C163.023 93.9013 163.332 92.1214 164.286 91.1257C165.24 90.1299 166.659 89.8195 167.975 89.9462C169.28 90.0892 170.527 90.6031 171.591 91.4363C172.656 92.2696 173.5 93.3928 174.04 94.6935C174.872 96.7653 174.865 99.1352 175.618 101.243C176.019 102.366 176.627 103.389 177.405 104.247C178.182 105.105 179.113 105.78 180.14 106.232C181.166 106.683 182.267 106.901 183.374 106.873C184.481 106.844 185.571 106.568 186.576 106.064C187.886 105.406 189.133 104.119 189.058 102.551C189.886 106.026 188.395 110.002 185.569 111.853C183.913 112.937 181.953 113.305 180.035 113.558C178.785 113.723 177.501 113.846 176.281 113.506C174.575 113.03 173.147 111.659 172.282 109.989C171.416 108.319 171.076 106.372 171.063 104.455C171.053 102.961 171.232 101.467 171.137 99.9766C171.043 98.4865 170.631 96.9452 169.639 95.9135C168.647 94.8818 166.972 94.5422 165.883 95.451C165.445 95.8162 165.125 96.3495 164.632 96.6189C164.139 96.8884 163.361 96.6788 163.328 96.0796L163.842 95.031Z" fill="#2F2E41"/>
<path d="M196.979 198.421H119.405C119.325 198.421 119.249 198.386 119.193 198.325C119.137 198.264 119.105 198.18 119.105 198.094C119.105 198.007 119.137 197.924 119.193 197.863C119.249 197.801 119.325 197.767 119.405 197.767H196.979C197.058 197.767 197.134 197.801 197.191 197.863C197.247 197.924 197.278 198.007 197.278 198.094C197.278 198.18 197.247 198.264 197.191 198.325C197.134 198.386 197.058 198.421 196.979 198.421Z" fill="#3F3D56"/>
</g>
<defs>
<clipPath id="clip0_23_387">
<rect width="200" height="200" fill="white"/>
</clipPath>
</defs>
</svg>
