<svg width="200" height="200" viewBox="0 0 200 200" fill="none" xmlns="http://www.w3.org/2000/svg">
<g clip-path="url(#clip0_23_111)">
<path d="M55.372 195.591L58.9437 195.077L59.08 177.374L53.8088 178.132L55.372 195.591Z" fill="#FFB8B8"/>
<path d="M66.2077 198.289L54.983 199.904L54.4909 194.407L61.3788 193.417C62.529 193.251 63.6839 193.672 64.5895 194.586C65.4951 195.499 66.0772 196.832 66.2077 198.289Z" fill="#2F2E41"/>
<path d="M18.6415 195.308H22.236L23.9458 177.736L18.6409 177.737L18.6415 195.308Z" fill="#FFB8B8"/>
<path d="M29.1682 199.537L17.8714 199.538L17.8712 194.006L24.8033 194.006C25.9609 194.006 27.0711 194.589 27.8897 195.626C28.7082 196.663 29.1681 198.07 29.1682 199.537Z" fill="#2F2E41"/>
<path d="M44.4307 116.732L46.483 125.192L57.6242 155.747L60.556 184.73L53.8127 185.102L49.7081 158.348L35.6351 139.026L23.3212 189.56L17.7506 188.817C17.7506 188.817 22.4416 123.42 28.8918 116.732C28.8918 116.732 39.4465 110.415 44.4307 116.732Z" fill="#2F2E41"/>
<path d="M35.3269 80.2263C39.3039 80.2263 42.5279 76.1403 42.5279 71.1C42.5279 66.0598 39.3039 61.9738 35.3269 61.9738C31.3499 61.9738 28.1259 66.0598 28.1259 71.1C28.1259 76.1403 31.3499 80.2263 35.3269 80.2263Z" fill="#FFB8B8"/>
<path d="M45.1637 118.404C45.1637 118.404 46.0433 80.5035 33.7294 83.1045C21.4155 85.7055 26.5463 122.306 26.5463 122.306C26.5463 122.306 29.185 128.994 35.6351 121.562C42.0852 114.131 45.1637 118.404 45.1637 118.404Z" fill="#CCCCCC"/>
<path opacity="0.2" d="M28.1589 99.0823L31.0565 113.159L35.471 118.754L29.3317 116.175L28.1589 99.0823Z" fill="black"/>
<path d="M45.2547 134.433C44.8495 134.247 44.4814 133.95 44.1764 133.564C43.8714 133.178 43.6369 132.712 43.4894 132.199C43.3419 131.686 43.285 131.138 43.3227 130.594C43.3604 130.049 43.4917 129.522 43.7075 129.05L36.859 119.001L42.2579 118.11L47.9336 127.789C48.5364 128.301 48.97 129.076 49.1523 129.966C49.3345 130.856 49.2528 131.8 48.9226 132.619C48.5924 133.438 48.0366 134.075 47.3606 134.409C46.6846 134.744 45.9353 134.752 45.2547 134.433Z" fill="#FFB8B8"/>
<path d="M36.9163 90.8242L37.6874 110.044L46.7762 124.907L42.9648 128.622L30.6509 113.016C30.6509 113.016 26.2531 94.0659 29.4781 88.4923C30.6875 86.4022 32.0206 85.8275 33.2146 85.9254C34.1969 86.0291 35.1155 86.5844 35.7972 87.4866C36.479 88.3889 36.877 89.5759 36.9163 90.8242Z" fill="#CCCCCC"/>
<path d="M34.4705 80.6894C34.5049 80.6503 34.5316 80.6016 34.5485 80.5471C34.5655 80.4927 34.5722 80.434 34.5681 80.3757C34.564 80.3174 34.5493 80.2611 34.5251 80.2113C34.5008 80.1614 34.4678 80.1195 34.4285 80.0886C33.789 79.5868 33.268 78.8759 32.9202 78.0306C32.5724 77.1854 32.4107 76.2371 32.452 75.2853C32.4932 74.3335 32.736 73.4133 33.1548 72.6215C33.5736 71.8297 34.1529 71.1954 34.8319 70.7854C36.9491 69.5061 39.8179 70.5013 41.383 68.043C41.7013 67.5171 41.9263 66.9103 42.0428 66.2642C42.1593 65.618 42.1645 64.9476 42.0581 64.2986C41.7204 61.9767 40.3431 60.2524 38.8007 59.0707C36.9059 57.6191 34.7283 56.869 32.5144 56.9055C30.3005 56.942 28.139 57.7636 26.2747 59.2772C24.4103 60.7908 22.9178 62.9359 21.9661 65.4695C21.0144 68.003 20.6417 70.8238 20.8901 73.612C21.0892 75.8467 21.6333 78.3525 20.5848 80.1668C19.662 81.7637 17.9203 82.0631 16.3902 82.4599C13.1086 83.3109 9.94256 85.2741 7.71554 88.4452C5.48853 91.6164 4.30048 96.0655 4.97193 100.225C5.64338 104.384 8.33713 108.039 11.648 108.684C14.3429 109.208 17.1255 107.758 19.1045 105.381C21.0835 103.004 22.3344 99.7941 23.1234 96.4865C24.0599 92.5607 24.4293 88.3303 26.12 84.8333C27.7745 81.4112 31.3399 78.9581 34.1343 80.7403C34.1878 80.7758 34.2486 80.7899 34.3086 80.7808C34.3686 80.7717 34.425 80.7398 34.4705 80.6894Z" fill="#2F2E41"/>
<path d="M90.3018 200H0.293188C0.21543 200 0.140851 199.961 0.085868 199.891C0.0308846 199.821 0 199.727 0 199.628C0 199.53 0.0308846 199.435 0.085868 199.366C0.140851 199.296 0.21543 199.257 0.293188 199.257H90.3018C90.3796 199.257 90.4542 199.296 90.5091 199.366C90.5641 199.435 90.595 199.53 90.595 199.628C90.595 199.727 90.5641 199.821 90.5091 199.891C90.4542 199.961 90.3796 200 90.3018 200Z" fill="#3F3D56"/>
<path d="M181.228 73.4898C181.212 84.0151 178.089 94.1519 172.475 101.907C166.86 109.663 159.159 114.476 150.887 115.401C142.614 116.326 134.367 113.295 127.768 106.904C121.169 100.514 116.695 91.2262 115.226 80.867C113.756 70.5078 115.397 59.8266 119.826 50.9232C124.256 42.0198 131.153 35.5383 139.162 32.753C147.17 29.9676 155.712 31.0799 163.106 35.8712C170.501 40.6624 176.214 48.786 179.122 58.6449C179.194 58.8924 179.265 59.14 179.334 59.3899V59.3923C179.641 60.491 179.911 61.6102 180.145 62.7498C180.866 66.2566 181.23 69.8659 181.228 73.4898Z" fill="#3F3D56"/>
<path d="M144.076 44.8553C142.571 43.8239 140.9 43.2417 139.191 43.1531C137.482 43.0644 135.779 43.4717 134.212 44.3439C132.833 45.1046 131.381 46.4692 130.921 48.9333C132.782 47.5416 135.19 49.7406 135.669 53.2682L135.557 53.3072C135.305 55.7506 135.869 58.4108 136.962 59.9258C137.043 59.2422 137.244 58.5901 137.549 58.0169C137.854 57.4437 138.256 56.9638 138.725 56.612C139.528 55.9429 140.417 55.4569 141.03 54.3069C141.756 52.9435 141.941 50.951 142.229 49.1333C142.518 47.3155 143.066 45.3618 144.076 44.8553Z" fill="#F6DF08"/>
<path d="M133.66 65.6477C133.145 66.6285 132.457 67.2439 131.839 68.0102C131.126 68.8322 130.658 69.9405 130.514 71.1485C130.436 72.002 130.557 72.8697 130.54 73.7327C130.524 74.5956 130.297 75.5671 129.833 75.7816C129.102 76.1164 128.544 74.3952 127.793 74.275C127.195 74.1807 126.658 75.3714 126.831 76.4041C127.004 77.4368 127.817 77.8942 128.284 77.2199C128.706 78.1182 128.408 79.7475 127.774 80.0234C127.707 80.5893 127.64 81.1528 127.575 81.7187C125.971 80.2969 124.351 78.8515 122.987 76.7695C121.47 74.4737 120.53 71.6558 120.286 68.6775C120.109 66.2843 120.371 63.5468 119.504 61.7054C118.81 60.2317 117.62 59.9063 116.548 59.9983C116.353 60.0148 116.156 60.0431 115.96 60.0737C116.592 57.6681 117.395 55.3401 118.358 53.1181C118.576 52.9995 118.779 52.8397 118.959 52.6441C119.956 51.5714 120.399 49.3998 121.208 47.8978C121.261 47.8011 121.314 47.7068 121.37 47.6149C122.198 46.245 123.307 45.54 124.379 44.8845C126.751 43.425 129.192 41.9466 131.696 42.1494L130.983 42.2366C130.152 45.1887 129.319 48.1407 128.486 51.0927C128.36 51.5454 128.232 51.9989 128.103 52.4532C127.631 54.1319 127.143 55.9192 127.216 57.7984C127.259 58.9113 127.564 60.0997 128.144 60.4816C128.686 60.8353 129.277 60.4014 129.8 59.9723C130.021 59.7931 130.241 59.6139 130.462 59.4323C131.257 58.784 132.137 58.119 132.976 58.5529C133.744 58.9489 134.311 60.2717 134.419 61.6982C134.518 63.0849 134.251 64.474 133.66 65.6477Z" fill="#F6DF08"/>
<path d="M138.385 85.8018C136.065 83.9913 133.745 82.1808 131.425 80.3704L131.464 80.2418C130.021 80.9382 129.423 84.1879 129.661 86.8456C129.899 89.5032 130.708 91.879 131.116 94.4685C131.667 98.0122 131.459 101.678 130.514 105.086C133.565 100.747 136.265 96.032 138.574 91.0109C138.896 90.378 139.142 89.6875 139.303 88.9622C139.473 88.1893 139.412 87.3639 139.132 86.6441C138.942 86.289 138.686 85.9995 138.385 85.8018Z" fill="#F6DF08"/>
<path d="M129.228 52.8639C128.956 53.6053 128.914 54.4495 129.111 55.2284C129.34 55.8559 129.755 56.3434 130.266 56.5846L131.548 57.39C131.975 57.6579 132.434 57.9285 132.869 57.7081C133.393 57.4422 133.757 56.4003 133.663 55.433C133.563 54.4037 133.051 53.6957 132.577 53.0928C131.915 52.249 131.252 51.4053 130.59 50.5615L130.216 51.1412C129.812 51.6404 129.478 52.2229 129.228 52.8639Z" fill="#F6DF08"/>
<path d="M174.356 63.8675C174.932 64.0396 175.509 64.2117 176.086 64.3838C175.985 66.8525 175.02 69.1373 173.725 69.9648C173.185 70.3091 172.584 70.4364 172.138 71.0801C171.734 71.6649 171.53 72.575 171.342 73.445C171.012 74.9635 170.683 76.4819 170.354 78.0003C170 79.6367 169.546 81.4546 168.627 82.044C167.838 82.5509 166.936 81.9308 166.33 80.8911C165.723 79.8513 165.353 78.4531 164.994 77.0903C165.016 78.5757 164.471 80.0328 163.699 80.5492C162.925 81.0655 161.984 80.5987 161.466 79.4457C161.094 78.6181 160.94 77.5264 160.575 76.6871C160.211 75.8477 159.446 75.3667 159.048 76.1542C158.786 76.6777 158.819 77.4793 158.689 78.1442C158.623 78.5856 158.451 78.9902 158.195 79.3017C157.94 79.6131 157.614 79.8159 157.264 79.8819C156.941 79.8726 156.624 79.7801 156.331 79.6103C156.037 79.4405 155.774 79.1967 155.558 78.894C154.418 77.417 153.677 75.5214 153.439 73.478C153.277 72.4984 153.298 71.4846 153.498 70.5166C153.727 69.5994 154.28 68.8921 154.828 69.0665C155.189 68.0998 154.477 66.8172 153.835 66.9303C153.191 67.0435 152.687 67.9183 152.159 68.5903C151.632 69.2622 150.895 69.7503 150.365 69.083C150.377 69.3271 150.312 69.5671 150.184 69.7503C150.056 69.9336 149.876 70.0449 149.684 70.0599C149.665 70.0614 149.646 70.062 149.627 70.0615C149.274 69.9333 148.946 69.7133 148.665 69.4155C147.45 68.4558 145.908 69.0925 145.044 70.908C145.584 67.9984 146.375 64.6597 148.032 63.9759C148.709 63.6953 149.448 63.9264 150.088 63.4407C151.221 62.5801 151.45 59.3286 150.471 57.987C150.596 59.2555 150.572 60.7363 150.043 61.604C149.515 62.4717 148.406 61.9057 148.473 60.6231C148.458 60.8035 148.398 60.9732 148.303 61.108C148.207 61.2428 148.08 61.3357 147.94 61.3733C147.8 61.411 147.654 61.3916 147.523 61.3178C147.392 61.244 147.283 61.1197 147.212 60.9626C146.86 60.2836 146.89 59.1731 147.139 58.362C147.396 57.6273 147.765 56.964 148.224 56.4097C149.108 55.2096 150.004 53.9953 151.028 53.2407C152.053 52.4862 153.236 52.2316 154.263 52.9814C154.804 53.3775 155.281 54.0377 155.833 54.3866C155.963 54.4887 156.107 54.5574 156.258 54.5888C156.409 54.6202 156.563 54.6136 156.712 54.5694C156.861 54.5253 157.001 54.4444 157.125 54.3314C157.249 54.2185 157.355 54.0757 157.435 53.9111C157.442 53.8984 157.448 53.8856 157.454 53.8726C157.865 52.9578 157.671 51.5997 157.824 50.4561C158.097 48.4355 159.692 47.49 160.575 48.8245C159.915 48.6099 159.232 49.6002 159.15 50.8004C159.067 52.0005 159.545 53.2124 160.185 53.5755C161.26 54.1791 162.313 52.6607 163.126 51.2554C163.974 49.7841 164.824 48.3136 165.675 46.8439C165.811 46.5937 165.963 46.3586 166.131 46.1413C166.397 45.8121 166.752 45.6236 167.124 45.614C167.496 45.6043 167.857 45.7743 168.134 46.0894C168.994 46.9783 169.397 48.8009 170.103 50.0553C171.126 51.8779 172.657 52.3212 174.082 52.6749C175.144 52.9366 176.207 53.1999 177.271 53.4647C177.98 55.1363 178.598 56.867 179.122 58.6449C177.172 59.772 175.517 61.5846 174.356 63.8675Z" fill="#F6DF08"/>
<path d="M177.79 92.237C176.993 94.2881 176.066 96.2539 175.018 98.1151C174.348 97.7519 173.628 98.4003 173.001 99.0087C172.346 99.6453 171.559 100.265 170.888 99.6854C170.201 99.0912 169.98 97.429 170.197 96.1109C170.448 94.895 170.885 93.7539 171.485 92.7533C172.043 91.697 172.64 90.6006 173.416 90.1904C174.194 89.7801 175.193 90.3601 175.42 91.7607L175.97 91.7371C175.662 91.1995 175.823 90.0866 176.238 89.8909C176.716 89.6622 177.131 90.4945 177.414 91.2302C177.541 91.5626 177.669 91.8975 177.79 92.237Z" fill="#F6DF08"/>
<path d="M156.699 82.2776C155.515 82.372 154.578 80.5252 153.955 78.7085C153.332 76.8917 152.763 74.8141 151.695 73.8893C151.085 73.3609 150.389 73.2884 149.727 73.0323C149.352 72.9122 149.004 72.6803 148.714 72.356C148.423 72.0317 148.198 71.6243 148.056 71.1675L147.305 70.7831C146.255 71.4485 145.293 72.3177 144.454 73.3593C143.496 74.6494 142.899 76.3033 142.756 78.0658C142.612 79.9706 143.142 82.0945 144.131 82.81C144.913 83.3754 145.824 83.019 146.616 83.5366C147.606 84.1832 148.193 86.0618 148.416 87.9165C148.638 89.7713 148.582 91.6989 148.741 93.5747C148.9 95.4506 149.338 97.4024 150.246 98.3637C151.382 99.5667 153.048 98.5671 153.558 96.3773C153.808 95.3032 153.799 94.0911 153.986 92.9762C154.315 91.0126 155.204 89.5558 155.908 87.9451C156.613 86.3345 157.168 84.1469 156.699 82.2776Z" fill="#F6DF08"/>
<path d="M145.003 62.9831C145.113 63.1119 145.216 63.2505 145.311 63.3978C145.409 63.6123 145.459 63.8567 145.456 64.1046C145.452 64.3526 145.396 64.5946 145.292 64.8048C145.434 64.7945 145.574 64.7468 145.701 64.6648C145.828 64.5828 145.941 64.4683 146.031 64.3283C146.248 64.0165 146.438 63.6772 146.599 63.3159C146.674 63.1922 146.728 63.0494 146.757 62.8972C146.786 62.7449 146.789 62.5866 146.766 62.4328C146.71 62.2305 146.578 62.1443 146.485 61.9922C146.356 61.6948 146.269 61.3719 146.226 61.0373C146.174 60.7236 146.055 60.4344 145.881 60.202C145.707 59.9697 145.485 59.8034 145.241 59.7219L145.3 59.7363C145.199 59.8122 145.119 59.9263 145.072 60.0625C145.025 60.1987 145.012 60.3503 145.037 60.4959C145.072 60.7901 145.222 61.0344 145.207 61.3345C145.185 61.766 144.845 61.9685 144.824 62.4001C144.821 62.6166 144.885 62.826 145.003 62.9831Z" fill="#F6DF08"/>
<path d="M142.975 55.6502L142.98 55.6489C143.016 55.6068 143.05 55.5612 143.081 55.5125L142.975 55.6502Z" fill="#F6DF08"/>
<path d="M143.329 57.6757C143.472 57.5176 143.577 57.313 143.634 57.0843C143.69 56.8556 143.696 56.6116 143.651 56.3788C143.565 55.8882 143.261 55.5583 142.98 55.6489C142.898 55.7535 142.797 55.8302 142.686 55.8717C142.575 55.9132 142.457 55.9182 142.344 55.8862C142.17 55.8296 141.98 55.6837 141.829 55.8495C141.743 55.9732 141.683 56.1224 141.654 56.2832C141.598 56.5 141.543 56.7167 141.487 56.9334C141.46 57.011 141.453 57.0971 141.467 57.1798C141.478 57.213 141.495 57.2421 141.517 57.2644C141.539 57.2867 141.565 57.3014 141.593 57.3071L142.596 57.6818C142.711 57.749 142.837 57.7833 142.963 57.7822C143.09 57.7812 143.215 57.7448 143.329 57.6757Z" fill="#F6DF08"/>
<path d="M168.565 85.6394C168.41 85.3187 168.256 84.9981 168.101 84.6775C167.949 84.3062 167.742 83.976 167.49 83.7055C167.38 83.5887 167.238 83.532 167.095 83.548C166.952 83.564 166.82 83.6513 166.728 83.7908L166.72 83.8033L166.739 83.9864C167.152 84.5486 167.434 85.2458 167.553 85.9997C167.588 86.3274 167.576 86.6665 167.607 86.9956C167.61 87.1482 167.637 87.2985 167.686 87.4379C167.735 87.5772 167.805 87.703 167.893 87.8079C168.136 88.0139 168.422 87.7101 168.595 87.3395C168.75 87.0351 168.819 86.6735 168.792 86.313C168.754 86.071 168.676 85.8418 168.565 85.6394Z" fill="#F6DF08"/>
<path d="M170.989 86.0566C171.018 85.7565 170.999 85.4519 170.932 85.1615C170.921 84.7686 171.003 84.3805 171.168 84.0475C171.332 83.7333 171.456 83.3886 171.536 83.026C171.569 82.8607 171.563 82.6865 171.518 82.5257C171.467 82.3801 171.343 82.3137 171.272 82.429L171.424 82.5531C171.219 82.5067 171.008 82.5196 170.807 82.591C170.692 82.6466 170.59 82.7363 170.509 82.8526C170.427 82.9689 170.369 83.1084 170.339 83.2592C170.314 83.4943 170.273 83.7263 170.217 83.9525C170.126 84.1888 169.95 84.2674 169.84 84.4748C169.765 84.6587 169.727 84.8634 169.729 85.0705C169.732 85.2776 169.775 85.4806 169.855 85.6612C169.994 85.9566 170.214 86.1761 170.473 86.2772C170.659 86.3616 170.904 86.3661 170.989 86.0566Z" fill="#F6DF08"/>
<path d="M175.305 87.7072C175.373 87.9286 175.462 88.1378 175.573 88.3294C175.779 88.5932 176.06 88.431 176.311 88.3669C176.539 88.3214 176.772 88.3547 176.985 88.4634C177.199 88.5721 177.386 88.752 177.525 88.9842C177.428 88.3696 177.216 87.7936 176.907 87.3046C176.597 86.8155 176.2 86.4277 175.748 86.1736C175.16 85.9159 174.541 85.7932 173.92 85.8113L173.814 85.8458C174.084 86.8438 174.934 86.8215 175.305 87.7072Z" fill="#F6DF08"/>
<path d="M157.023 89.7485L157.024 89.7528L157.056 89.6774L157.023 89.7485Z" fill="#F6DF08"/>
<path d="M156.368 91.3549C156.225 91.6835 156.102 92.0254 156.001 92.3777C155.866 92.9483 155.777 93.5347 155.734 94.1279C155.701 94.4651 155.691 94.8959 155.857 95.0603C155.905 95.1005 155.963 95.1173 156.02 95.1075C156.077 95.0977 156.129 95.062 156.167 95.007C156.26 94.8828 156.335 94.74 156.391 94.5845C156.719 93.8692 156.973 93.1039 157.148 92.307C157.331 91.4617 157.287 90.5634 157.024 89.7529C156.806 90.2869 156.587 90.8209 156.368 91.3549Z" fill="#F6DF08"/>
<path d="M150.05 48.5564C150.155 48.6853 150.286 48.7728 150.429 48.8081C150.572 48.8434 150.719 48.825 150.854 48.7552C151.133 48.6007 151.388 48.3866 151.61 48.1223C151.793 47.9503 151.949 47.7352 152.068 47.4887C152.134 47.3414 152.176 47.1791 152.192 47.0111C152.208 46.8431 152.198 46.6727 152.162 46.5098C152.111 46.3537 152.029 46.2167 151.924 46.1118C151.82 46.0069 151.696 45.9375 151.564 45.9103C151.193 45.7708 150.822 45.6314 150.451 45.492L150.719 45.1854C150.443 44.9976 150.138 45.3461 149.965 45.7777C149.854 46.0595 149.777 46.3605 149.736 46.671C149.677 46.9953 149.675 47.332 149.729 47.6576C149.784 47.9832 149.893 48.2899 150.05 48.5564Z" fill="#F6DF08"/>
<path d="M156.601 45.7694C156.706 45.9155 156.85 46.0057 157.005 46.0217C157.16 46.0377 157.315 45.9783 157.436 45.8555C157.541 45.7557 157.628 45.629 157.692 45.4837C157.756 45.3384 157.794 45.1777 157.806 45.0121C157.832 44.6422 157.688 44.2311 157.482 44.1992L157.529 43.8529C157.132 43.762 156.643 43.7438 156.431 44.3549C156.359 44.5889 156.337 44.8428 156.367 45.091C156.397 45.3392 156.477 45.5732 156.601 45.7694Z" fill="#F6DF08"/>
<path d="M129.61 70.6813C130.978 70.6813 132.087 68.7969 132.087 66.4724C132.087 64.1478 130.978 62.2634 129.61 62.2634C128.242 62.2634 127.133 64.1478 127.133 66.4724C127.133 68.7969 128.242 70.6813 129.61 70.6813Z" fill="#E6E6E6"/>
<path d="M174.869 122.8C176.052 122.401 176.833 121.232 176.614 120.19C176.394 119.147 175.258 118.626 174.076 119.025C172.894 119.424 172.113 120.593 172.332 121.635C172.551 122.677 173.687 123.199 174.869 122.8Z" fill="#E6E6E6"/>
<path d="M160.387 123.139C161.57 122.74 162.351 121.572 162.132 120.529C161.913 119.487 160.777 118.965 159.594 119.364C158.412 119.763 157.631 120.932 157.85 121.974C158.069 123.017 159.205 123.538 160.387 123.139Z" fill="#E6E6E6"/>
<path d="M177.442 107.529C178.624 107.13 179.405 105.962 179.186 104.919C178.967 103.877 177.831 103.355 176.649 103.754C175.466 104.153 174.685 105.322 174.905 106.364C175.124 107.407 176.26 107.928 177.442 107.529Z" fill="#E6E6E6"/>
<path d="M181.713 101.038C182.247 100.954 182.603 100.098 182.508 99.1251C182.413 98.1525 181.903 97.4321 181.369 97.516C180.835 97.5998 180.479 98.4563 180.575 99.4289C180.67 100.402 181.18 101.122 181.713 101.038Z" fill="#E6E6E6"/>
<path d="M182.795 89.5173C183.329 89.4334 183.684 88.5769 183.589 87.6043C183.494 86.6317 182.984 85.9113 182.45 85.9951C181.916 86.079 181.561 86.9355 181.656 87.9081C181.751 88.8807 182.261 89.6012 182.795 89.5173Z" fill="#E6E6E6"/>
<path d="M168.196 111.665C168.73 111.581 169.086 110.724 168.991 109.752C168.896 108.779 168.386 108.058 167.852 108.142C167.318 108.226 166.962 109.083 167.057 110.055C167.153 111.028 167.662 111.748 168.196 111.665Z" fill="#E6E6E6"/>
<path d="M175.518 115.023C176.052 114.939 176.408 114.083 176.313 113.11C176.217 112.138 175.708 111.417 175.174 111.501C174.64 111.585 174.284 112.441 174.379 113.414C174.474 114.387 174.984 115.107 175.518 115.023Z" fill="#E6E6E6"/>
<path d="M166.628 124.536C167.162 124.453 167.518 123.596 167.422 122.623C167.327 121.651 166.817 120.93 166.283 121.014C165.75 121.098 165.394 121.955 165.489 122.927C165.584 123.9 166.094 124.62 166.628 124.536Z" fill="#E6E6E6"/>
<path d="M102.883 107.387C104.065 106.987 104.846 105.819 104.627 104.776C104.408 103.734 103.272 103.212 102.09 103.612C100.907 104.011 100.126 105.179 100.345 106.222C100.565 107.264 101.701 107.786 102.883 107.387Z" fill="#E6E6E6"/>
<path d="M88.4005 107.727C89.5829 107.327 90.3638 106.159 90.1448 105.116C89.9257 104.074 88.7896 103.552 87.6072 103.952C86.4249 104.351 85.6439 105.519 85.863 106.562C86.082 107.604 87.2181 108.126 88.4005 107.727Z" fill="#E6E6E6"/>
<path d="M105.456 92.1154C106.639 91.7163 107.42 90.5477 107.201 89.5053C106.982 88.4628 105.845 87.9413 104.663 88.3404C103.481 88.7395 102.7 89.9081 102.919 90.9505C103.138 91.9929 104.274 92.5145 105.456 92.1154Z" fill="#E6E6E6"/>
<path d="M109.727 85.6246C110.261 85.5407 110.617 84.6843 110.522 83.7116C110.426 82.739 109.917 82.0186 109.383 82.1024C108.849 82.1863 108.493 83.0428 108.588 84.0154C108.683 84.988 109.193 85.7085 109.727 85.6246Z" fill="#E6E6E6"/>
<path d="M110.809 74.1038C111.342 74.02 111.698 73.1635 111.603 72.1909C111.508 71.2183 110.998 70.4978 110.464 70.5817C109.93 70.6656 109.574 71.522 109.67 72.4947C109.765 73.4673 110.275 74.1877 110.809 74.1038Z" fill="#E6E6E6"/>
<path d="M96.2101 96.2511C96.7439 96.1672 97.0996 95.3107 97.0045 94.3381C96.9093 93.3655 96.3994 92.645 95.8655 92.7289C95.3316 92.8128 94.976 93.6693 95.0711 94.6419C95.1663 95.6145 95.6762 96.3349 96.2101 96.2511Z" fill="#E6E6E6"/>
<path d="M103.532 99.6098C104.066 99.5259 104.421 98.6694 104.326 97.6968C104.231 96.7242 103.721 96.0037 103.187 96.0876C102.654 96.1715 102.298 97.028 102.393 98.0006C102.488 98.9732 102.998 99.6937 103.532 99.6098Z" fill="#E6E6E6"/>
<path d="M94.6418 109.123C95.1757 109.039 95.5313 108.183 95.4362 107.21C95.341 106.237 94.8311 105.517 94.2972 105.601C93.7634 105.685 93.4077 106.541 93.5029 107.514C93.598 108.486 94.1079 109.207 94.6418 109.123Z" fill="#E6E6E6"/>
<path d="M190.87 36.8114C192.053 36.4124 192.834 35.2438 192.615 34.2013C192.396 33.1589 191.259 32.6374 190.077 33.0364C188.895 33.4355 188.114 34.6041 188.333 35.6465C188.552 36.689 189.688 37.2105 190.87 36.8114Z" fill="#E6E6E6"/>
<path d="M176.388 37.1515C177.57 36.7524 178.351 35.5838 178.132 34.5414C177.913 33.4989 176.777 32.9774 175.595 33.3765C174.412 33.7755 173.631 34.9441 173.85 35.9866C174.069 37.029 175.205 37.5505 176.388 37.1515Z" fill="#E6E6E6"/>
<path d="M193.444 21.54C194.626 21.1409 195.407 19.9723 195.188 18.9298C194.969 17.8874 193.833 17.3659 192.65 17.7649C191.468 18.164 190.687 19.3326 190.906 20.3751C191.125 21.4175 192.261 21.939 193.444 21.54Z" fill="#E6E6E6"/>
<path d="M197.715 15.0496C198.248 14.9657 198.604 14.1092 198.509 13.1366C198.414 12.164 197.904 11.4435 197.37 11.5274C196.836 11.6113 196.48 12.4678 196.576 13.4404C196.671 14.413 197.181 15.1335 197.715 15.0496Z" fill="#E6E6E6"/>
<path d="M198.796 3.52878C199.33 3.44489 199.685 2.58842 199.59 1.6158C199.495 0.643183 198.985 -0.0772739 198.451 0.00661425C197.917 0.0905023 197.562 0.946969 197.657 1.91959C197.752 2.89221 198.262 3.61267 198.796 3.52878Z" fill="#E6E6E6"/>
<path d="M184.197 25.676C184.731 25.5921 185.087 24.7356 184.992 23.763C184.897 22.7904 184.387 22.0699 183.853 22.1538C183.319 22.2377 182.963 23.0942 183.058 24.0668C183.154 25.0394 183.664 25.7599 184.197 25.676Z" fill="#E6E6E6"/>
<path d="M191.519 29.0348C192.053 28.9509 192.409 28.0944 192.314 27.1218C192.219 26.1492 191.709 25.4287 191.175 25.5126C190.641 25.5965 190.285 26.4529 190.38 27.4256C190.476 28.3982 190.985 29.1186 191.519 29.0348Z" fill="#E6E6E6"/>
<path d="M182.629 38.5479C183.163 38.464 183.519 37.6076 183.424 36.635C183.328 35.6623 182.818 34.9419 182.285 35.0258C181.751 35.1097 181.395 35.9661 181.49 36.9387C181.585 37.9114 182.095 38.6318 182.629 38.5479Z" fill="#E6E6E6"/>
<path d="M98.5315 109.998C96.1621 109.998 94.6217 109.251 93.9399 107.768C92.5954 104.843 94.8472 99.7104 100.633 92.513L101.119 93.1404C95.7445 99.8263 93.4079 104.864 94.5393 107.326C95.2551 108.883 97.3857 109.441 100.702 108.939C103.994 108.441 108.356 106.956 113.669 104.526C124.605 99.5243 138.325 91.0868 152.303 80.7681C166.28 70.4496 178.839 59.4857 187.668 49.8965C189.363 48.0543 190.902 46.2821 192.242 44.6295C194 42.5129 195.622 40.2218 197.092 37.778C199.073 34.3704 199.741 31.7461 199.025 30.1888C197.83 27.5879 192.807 27.8325 184.883 30.8785L184.681 30.037C193.184 26.7695 198.211 26.6715 199.625 29.7464C200.503 31.6568 199.839 34.5345 197.651 38.2995C196.158 40.7821 194.511 43.1094 192.726 45.2594C191.376 46.9251 189.826 48.7097 188.119 50.5641C179.26 60.1869 166.664 71.1835 152.652 81.5277C138.639 91.8725 124.878 100.334 113.904 105.354C108.542 107.806 104.128 109.306 100.784 109.812C100.037 109.93 99.2846 109.992 98.5315 109.998Z" fill="#3F3D56"/>
</g>
<defs>
<clipPath id="clip0_23_111">
<rect width="200" height="200" fill="white"/>
</clipPath>
</defs>
</svg>
